:FULLY-SPECIFIED
:FORCE-ALL-JOINTS-BE-3DOF
:DEGREES
917
root 2.64434 16.1692 32.4194 2.4108 9.57123 362.511
lfemur -10.7486 -5.69166 2.69513
ltibia 21.6251 0 0
lfoot 8.09921 -49.025 0
ltoes 28.1054 0 0
rfemur -19.0943 -0.949699 -7.44918
rtibia 37.3728 0 0
rfoot 9.54521 -10.1762 0
rtoes -36.9195 0 0
lowerback -0.877716 0.0720787 -2.92595
upperback -0.795908 0.106337 -5.14422
thorax -0.30318 0.0570714 -3.63779
lowerneck -7.16954 -4.6568 -0.979064
upperneck 4.18378 -6.50575 6.06265
head 2.86854 -3.04631 1.83068
lclavicle 1.21615e-014 -1.93016e-014 0
lhumerus -50.8739 -35.6094 106.375
lradius 59.1812 0 0
lwrist 14.6616 0 0
lhand 39.0616 22.751 0
lfingers 7.12502 0 0
lthumb 61.5279 34.1329 0
rclavicle 1.21615e-014 -1.93016e-014 0
rhumerus -62.3984 34.152 -100.068
rradius 115.993 0 0
rwrist 5.08297 0 0
rhand 5.23423 -10.2138 0
rfingers 7.12502 0 0
rthumb 30.5932 -757.691 0
918
root 2.61589 16.162 32.4752 2.74743 9.44234 362.558
lfemur -10.7049 -5.97516 3.15258
ltibia 21.3063 0 0
lfoot 8.44492 -49.5388 0
ltoes 28.2743 0 0
rfemur -18.1326 -0.689597 -8.16924
rtibia 37.3837 0 0
rfoot 9.75935 -10.6692 0
rtoes -37.0119 0 0
lowerback -1.19504 0.0985969 -2.86949
upperback -0.910069 0.158888 -5.21155
thorax -0.248696 0.0831012 -3.74648
lowerneck -7.16536 -4.69379 -1.05143
upperneck 4.15013 -6.54945 6.10634
head 2.86154 -3.06874 1.85559
lclavicle 1.1008e-014 -1.91924e-014 0
lhumerus -51.2177 -35.8102 106.908
lradius 59.1494 0 0
lwrist 14.4776 0 0
lhand 39.6326 23.1284 0
lfingers 7.12502 0 0
lthumb 62.0459 34.2062 0
rclavicle 1.1008e-014 -1.91924e-014 0
rhumerus -62.6516 35.0337 -101.164
rradius 117.288 0 0
rwrist 5.10681 0 0
rhand 5.29051 -9.85217 0
rfingers 7.12502 0 0
rthumb 30.647 -757.32 0
919
root 2.58744 16.1548 32.531 3.08405 9.31345 362.605
lfemur -10.6612 -6.25866 3.61003
ltibia 20.9876 0 0
lfoot 8.79063 -50.0527 0
ltoes 28.4432 0 0
rfemur -17.1709 -0.429495 -8.8893
rtibia 37.3945 0 0
rfoot 9.97349 -11.1622 0
rtoes -37.1043 0 0
lowerback -1.51237 0.125115 -2.81302
upperback -1.02423 0.21144 -5.27889
thorax -0.194212 0.109131 -3.85516
lowerneck -7.16119 -4.73079 -1.1238
upperneck 4.11648 -6.59315 6.15003
head 2.85453 -3.09116 1.8805
lclavicle 9.85459e-015 -1.90833e-014 0
lhumerus -51.5615 -36.011 107.442
lradius 59.1177 0 0
lwrist 14.2935 0 0
lhand 40.2037 23.5058 0
lfingers 7.12502 0 0
lthumb 62.5638 34.2796 0
rclavicle 9.85459e-015 -1.90833e-014 0
rhumerus -62.9049 35.9155 -102.26
rradius 118.582 0 0
rwrist 5.13064 0 0
rhand 5.34678 -9.49053 0
rfingers 7.12502 0 0
rthumb 30.7007 -756.949 0
920
root 2.55746 16.1346 32.5322 3.1423 9.02326 362.637
lfemur -10.2783 -6.08192 3.64188
ltibia 20.5761 0 0
lfoot 8.02711 -49.3096 0
ltoes 27.2304 0 0
rfemur -17.5078 -0.740768 -8.83247
rtibia 37.6784 0 0
rfoot 9.32682 -10.8165 0
rtoes -37.1811 0 0
lowerback -1.51516 0.112645 -2.74219
upperback -1.02356 0.193586 -5.29505
thorax -0.193907 0.0995936 -3.91293
lowerneck -7.14474 -4.61295 -0.988255
upperneck 4.03703 -6.44023 6.09287
head 2.81992 -3.01748 1.84501
lclavicle 9.9459e-015 -1.84908e-014 0
lhumerus -51.6953 -36.1671 107.576
lradius 59.035 0 0
lwrist 14.5112 0 0
lhand 40.1423 23.5394 0
lfingers 7.12502 0 0
lthumb 62.5121 34.3736 0
rclavicle 9.9459e-015 -1.84908e-014 0
rhumerus -61.5895 34.7015 -100.237
rradius 116.815 0 0
rwrist 4.77662 0 0
rhand 4.61543 -10.2153 0
rfingers 7.12502 0 0
rthumb 29.9967 -757.722 0
921
root 2.52748 16.1144 32.5335 3.20055 8.73306 362.669
lfemur -9.89537 -5.90517 3.67373
ltibia 20.1646 0 0
lfoot 7.26359 -48.5664 0
ltoes 26.0175 0 0
rfemur -17.8448 -1.05204 -8.77565
rtibia 37.9623 0 0
rfoot 8.68016 -10.4708 0
rtoes -37.2579 0 0
lowerback -1.51795 0.100176 -2.67136
upperback -1.0229 0.175732 -5.31121
thorax -0.193601 0.0900563 -3.97071
lowerneck -7.12829 -4.49512 -0.852709
upperneck 3.95759 -6.28732 6.0357
head 2.7853 -2.94381 1.80952
lclavicle 1.00372e-014 -1.78984e-014 0
lhumerus -51.8291 -36.3232 107.71
lradius 58.9524 0 0
lwrist 14.729 0 0
lhand 40.0809 23.573 0
lfingers 7.12502 0 0
lthumb 62.4604 34.4677 0
rclavicle 1.00372e-014 -1.78984e-014 0
rhumerus -60.274 33.4874 -98.2131
rradius 115.048 0 0
rwrist 4.42259 0 0
rhand 3.88407 -10.9401 0
rfingers 7.12502 0 0
rthumb 29.2927 -758.495 0
922
root 2.4975 16.0942 32.5347 3.2588 8.44287 362.701
lfemur -9.51246 -5.72843 3.70558
ltibia 19.753 0 0
lfoot 6.50007 -47.8233 0
ltoes 24.8047 0 0
rfemur -18.1817 -1.36331 -8.71882
rtibia 38.2462 0 0
rfoot 8.03349 -10.1251 0
rtoes -37.3347 0 0
lowerback -1.52074 0.0877058 -2.60053
upperback -1.02223 0.157878 -5.32737
thorax -0.193296 0.0805189 -4.02848
lowerneck -7.11184 -4.37728 -0.717164
upperneck 3.87814 -6.1344 5.97854
head 2.75069 -2.87013 1.77404
lclavicle 1.01285e-014 -1.73059e-014 0
lhumerus -51.9629 -36.4793 107.844
lradius 58.8697 0 0
lwrist 14.9467 0 0
lhand 40.0196 23.6066 0
lfingers 7.12502 0 0
lthumb 62.4088 34.5617 0
rclavicle 1.01285e-014 -1.73059e-014 0
rhumerus -58.9586 32.2734 -96.1896
rradius 113.281 0 0
rwrist 4.06857 0 0
rhand 3.15272 -11.6649 0
rfingers 7.12502 0 0
rthumb 28.5887 -759.268 0
923
root 2.46753 16.074 32.5359 3.31705 8.15268 362.733
lfemur -9.12955 -5.55169 3.73743
ltibia 19.3415 0 0
lfoot 5.73655 -47.0801 0
ltoes 23.5918 0 0
rfemur -18.5187 -1.67459 -8.662
rtibia 38.5301 0 0
rfoot 7.38682 -9.77945 0
rtoes -37.4115 0 0
lowerback -1.52353 0.0752361 -2.5297
upperback -1.02156 0.140024 -5.34353
thorax -0.19299 0.0709815 -4.08625
lowerneck -7.09539 -4.25945 -0.581618
upperneck 3.79869 -5.98148 5.92138
head 2.71608 -2.79645 1.73855
lclavicle 1.02198e-014 -1.67135e-014 0
lhumerus -52.0968 -36.6354 107.978
lradius 58.7871 0 0
lwrist 15.1644 0 0
lhand 39.9582 23.6402 0
lfingers 7.12502 0 0
lthumb 62.3571 34.6557 0
rclavicle 1.02198e-014 -1.67135e-014 0
rhumerus -57.6431 31.0594 -94.1662
rradius 111.515 0 0
rwrist 3.71454 0 0
rhand 2.42136 -12.3897 0
rfingers 7.12502 0 0
rthumb 27.8847 -760.041 0
924
root 2.43755 16.0538 32.5372 3.37529 7.86248 362.765
lfemur -8.74663 -5.37495 3.76929
ltibia 18.93 0 0
lfoot 4.97303 -46.337 0
ltoes 22.379 0 0
rfemur -18.8556 -1.98586 -8.60517
rtibia 38.814 0 0
rfoot 6.74016 -9.43377 0
rtoes -37.4883 0 0
lowerback -1.52632 0.0627664 -2.45887
upperback -1.0209 0.12217 -5.35969
thorax -0.192685 0.0614441 -4.14402
lowerneck -7.07894 -4.14161 -0.446073
upperneck 3.71924 -5.82856 5.86421
head 2.68146 -2.72278 1.70306
lclavicle 1.03111e-014 -1.6121e-014 0
lhumerus -52.2306 -36.7915 108.113
lradius 58.7044 0 0
lwrist 15.3821 0 0
lhand 39.8968 23.6738 0
lfingers 7.12502 0 0
lthumb 62.3054 34.7497 0
rclavicle 1.03111e-014 -1.6121e-014 0
rhumerus -56.3277 29.8454 -92.1427
rradius 109.748 0 0
rwrist 3.36052 0 0
rhand 1.69001 -13.1145 0
rfingers 7.12502 0 0
rthumb 27.1808 -760.814 0
925
root 2.40757 16.0336 32.5384 3.43354 7.57229 362.797
lfemur -8.36372 -5.1982 3.80114
ltibia 18.5185 0 0
lfoot 4.20951 -45.5938 0
ltoes 21.1662 0 0
rfemur -19.1926 -2.29713 -8.54834
rtibia 39.0979 0 0
rfoot 6.09349 -9.08808 0
rtoes -37.5651 0 0
lowerback -1.52911 0.0502966 -2.38804
upperback -1.02023 0.104316 -5.37585
thorax -0.192379 0.0519068 -4.2018
lowerneck -7.06249 -4.02377 -0.310527
upperneck 3.6398 -5.67565 5.80705
head 2.64685 -2.6491 1.66757
lclavicle 1.04024e-014 -1.55286e-014 0
lhumerus -52.3644 -36.9476 108.247
lradius 58.6217 0 0
lwrist 15.5999 0 0
lhand 39.8354 23.7074 0
lfingers 7.12502 0 0
lthumb 62.2537 34.8438 0
rclavicle 1.04024e-014 -1.55286e-014 0
rhumerus -55.0123 28.6313 -90.1193
rradius 107.981 0 0
rwrist 3.00649 0 0
rhand 0.958653 -13.8393 0
rfingers 7.12502 0 0
rthumb 26.4768 -761.587 0
926
root 2.37759 16.0134 32.5396 3.49179 7.2821 362.829
lfemur -7.98081 -5.02146 3.83299
ltibia 18.1069 0 0
lfoot 3.44599 -44.8507 0
ltoes 19.9533 0 0
rfemur -19.5295 -2.6084 -8.49152
rtibia 39.3818 0 0
rfoot 5.44682 -8.74239 0
rtoes -37.6419 0 0
lowerback -1.5319 0.0378269 -2.31721
upperback -1.01956 0.0864617 -5.39201
thorax -0.192074 0.0423694 -4.25957
lowerneck -7.04604 -3.90594 -0.174982
upperneck 3.56035 -5.52273 5.74989
head 2.61224 -2.57543 1.63208
lclavicle 1.04937e-014 -1.49361e-014 0
lhumerus -52.4982 -37.1036 108.381
lradius 58.5391 0 0
lwrist 15.8176 0 0
lhand 39.774 23.741 0
lfingers 7.12502 0 0
lthumb 62.202 34.9378 0
rclavicle 1.04937e-014 -1.49361e-014 0
rhumerus -53.6968 27.4173 -88.0958
rradius 106.214 0 0
rwrist 2.65247 0 0
rhand 0.227298 -14.5641 0
rfingers 7.12502 0 0
rthumb 25.7728 -762.36 0
927
root 2.34761 15.9932 32.5409 3.55004 6.9919 362.861
lfemur -7.59789 -4.84472 3.86484
ltibia 17.6954 0 0
lfoot 2.68247 -44.1075 0
ltoes 18.7405 0 0
rfemur -19.8664 -2.91968 -8.43469
rtibia 39.6657 0 0
rfoot 4.80016 -8.39671 0
rtoes -37.7187 0 0
lowerback -1.53469 0.0253572 -2.24638
upperback -1.0189 0.0686077 -5.40817
thorax -0.191768 0.032832 -4.31734
lowerneck -7.02959 -3.7881 -0.0394361
upperneck 3.4809 -5.36981 5.69272
head 2.57762 -2.50175 1.5966
lclavicle 1.05851e-014 -1.43437e-014 0
lhumerus -52.632 -37.2597 108.515
lradius 58.4564 0 0
lwrist 16.0353 0 0
lhand 39.7127 23.7746 0
lfingers 7.12502 0 0
lthumb 62.1503 35.0318 0
rclavicle 1.05851e-014 -1.43437e-014 0
rhumerus -52.3814 26.2033 -86.0723
rradius 104.447 0 0
rwrist 2.29845 0 0
rhand -0.504056 -15.2888 0
rfingers 7.12502 0 0
rthumb 25.0688 -763.133 0
928
root 2.31763 15.973 32.5421 3.60829 6.70171 362.893
lfemur -7.21498 -4.66798 3.89669
ltibia 17.2839 0 0
lfoot 1.91895 -43.3644 0
ltoes 17.5276 0 0
rfemur -20.2034 -3.23095 -8.37787
rtibia 39.9496 0 0
rfoot 4.15349 -8.05102 0
rtoes -37.7955 0 0
lowerback -1.53749 0.0128875 -2.17555
upperback -1.01823 0.0507536 -5.42433
thorax -0.191463 0.0232946 -4.37512
lowerneck -7.01314 -3.67027 0.0961094
upperneck 3.40145 -5.21689 5.63556
head 2.54301 -2.42807 1.56111
lclavicle 1.06764e-014 -1.37512e-014 0
lhumerus -52.7658 -37.4158 108.649
lradius 58.3738 0 0
lwrist 16.253 0 0
lhand 39.6513 23.8082 0
lfingers 7.12502 0 0
lthumb 62.0987 35.1258 0
rclavicle 1.06764e-014 -1.37512e-014 0
rhumerus -51.066 24.9893 -84.0489
rradius 102.68 0 0
rwrist 1.94442 0 0
rhand -1.23541 -16.0136 0
rfingers 7.12502 0 0
rthumb 24.3648 -763.906 0
